<svg width="320" height="220" viewBox="0 0 320 220" fill="none" xmlns="http://www.w3.org/2000/svg">
  <rect width="320" height="220" rx="20" fill="#0F172A"/>
  <rect x="36" y="38" width="248" height="144" rx="16" fill="white" opacity="0.96"/>
  <polyline points="60,150 100,130 140,144 180,110 220,122 260,92" fill="none" stroke="#2F5FE9" stroke-width="6" stroke-linecap="round" stroke-linejoin="round"/>
  <polyline points="60,156 100,152 140,148 180,140 220,130 260,118" fill="none" stroke="#9BB6F6" stroke-width="4" stroke-linecap="round" stroke-linejoin="round" opacity="0.7"/>
  <circle cx="260" cy="92" r="9" fill="#2F5FE9"/>
  <circle cx="180" cy="110" r="6" fill="#2F5FE9" opacity="0.75"/>
  <circle cx="100" cy="130" r="6" fill="#2F5FE9" opacity="0.55"/>
  <rect x="60" y="68" width="80" height="12" rx="6" fill="#E7EDF7"/>
  <rect x="60" y="86" width="132" height="10" rx="5" fill="#E7EDF7"/>
  <rect x="60" y="104" width="96" height="10" rx="5" fill="#E7EDF7"/>
  <rect x="204" y="64" width="72" height="26" rx="8" fill="#E7EDF7"/>
  <rect x="212" y="72" width="40" height="10" rx="5" fill="#C7D6F1"/>
  <rect x="36" y="182" width="80" height="8" rx="4" fill="#1E293B" opacity="0.15"/>
</svg>
