<svg width="320" height="220" viewBox="0 0 320 220" fill="none" xmlns="http://www.w3.org/2000/svg">
  <rect width="320" height="220" rx="20" fill="#0B1224"/>
  <rect x="40" y="34" width="96" height="140" rx="14" fill="white" opacity="0.94"/>
  <rect x="48" y="50" width="36" height="36" rx="18" fill="#2F5FE9" opacity="0.2"/>
  <rect x="48" y="94" width="72" height="12" rx="6" fill="#DFE7F5"/>
  <rect x="48" y="114" width="56" height="10" rx="5" fill="#E7EDF7"/>
  <rect x="48" y="134" width="48" height="10" rx="5" fill="#E7EDF7"/>
  <rect x="144" y="26" width="96" height="156" rx="16" fill="white" opacity="0.98"/>
  <rect x="156" y="44" width="40" height="40" rx="20" fill="#2F5FE9"/>
  <rect x="156" y="94" width="72" height="12" rx="6" fill="#DFE7F5"/>
  <rect x="156" y="114" width="56" height="10" rx="5" fill="#E7EDF7"/>
  <rect x="156" y="134" width="64" height="10" rx="5" fill="#E7EDF7"/>
  <rect x="156" y="154" width="60" height="10" rx="5" fill="#E7EDF7"/>
  <rect x="240" y="46" width="48" height="128" rx="12" fill="white" opacity="0.9"/>
  <rect x="248" y="60" width="32" height="32" rx="16" fill="#2F5FE9" opacity="0.16"/>
  <rect x="248" y="102" width="32" height="10" rx="5" fill="#DFE7F5"/>
  <rect x="248" y="118" width="28" height="8" rx="4" fill="#E7EDF7"/>
  <rect x="248" y="134" width="30" height="8" rx="4" fill="#E7EDF7"/>
  <rect x="110" y="190" width="100" height="12" rx="6" fill="#162036" opacity="0.4"/>
</svg>
